<svg width="512" height="512" viewBox="0 0 512 512" fill="none" xmlns="http://www.w3.org/2000/svg">
<g clip-path="url(#clip0_1614_2)">
<rect width="512" height="512" rx="40" fill="#242E42"/>
<path d="M265.375 184.125V222.375H147.25V184.125H265.375ZM176.5 134.062H230.5V325.875C230.5 331.75 231.25 336.25 232.75 339.375C234.375 342.5 236.75 344.688 239.875 345.938C243 347.062 246.938 347.625 251.688 347.625C255.062 347.625 258.062 347.5 260.688 347.25C263.438 346.875 265.75 346.5 267.625 346.125L267.812 385.875C263.188 387.375 258.188 388.562 252.812 389.438C247.438 390.312 241.5 390.75 235 390.75C223.125 390.75 212.75 388.812 203.875 384.938C195.125 380.938 188.375 374.562 183.625 365.812C178.875 357.062 176.5 345.562 176.5 331.312V134.062ZM298.75 360.938C298.75 352.938 301.5 346.25 307 340.875C312.625 335.5 320.062 332.812 329.312 332.812C338.562 332.812 345.938 335.5 351.438 340.875C357.062 346.25 359.875 352.938 359.875 360.938C359.875 368.938 357.062 375.625 351.438 381C345.938 386.375 338.562 389.062 329.312 389.062C320.062 389.062 312.625 386.375 307 381C301.5 375.625 298.75 368.938 298.75 360.938Z" fill="white"/>
</g>
<defs>
<clipPath id="clip0_1614_2">
<rect width="512" height="512" fill="white"/>
</clipPath>
</defs>
</svg>
